<svg width="22" height="16" viewBox="0 0 22 16" fill="#fff" xmlns="http://www.w3.org/2000/svg">
<path d="M21.5 0H0.5C0.2235 0 0 0.2235 0 0.5V15.5C0 15.7765 0.2235 16 0.5 16H21.5C21.776 16 22 15.7765 22 15.5V0.5C22 0.2235 21.776 0 21.5 0ZM21 13.7905L14.806 7.597L14.099 8.304L20.795 15H1.205L7.901 8.304L7.194 7.597L1 13.7905V1H21V13.7905Z" />
<path d="M19.9895 0.999916L11 9.98941L2.0105 0.999916H1V1.40342L10.6465 11.0499C10.842 11.2454 11.158 11.2454 11.3535 11.0499L21 1.40342V0.999916H19.9895Z" />
</svg>
