<svg width="14" height="15" viewBox="0 0 14 15" fill="none" xmlns="http://www.w3.org/2000/svg">
<path fill-rule="evenodd" clip-rule="evenodd" d="M11.8527 1.48159H11.1119V0H9.63035V1.48159H3.70398V0H2.22239V1.48159H1.48159C0.659308 1.48159 0.00740796 2.14831 0.00740796 2.96318L0 13.3343C0 14.1492 0.659308 14.8159 1.48159 14.8159H11.8527C12.6676 14.8159 13.3343 14.1492 13.3343 13.3343V2.96318C13.3343 2.14831 12.6676 1.48159 11.8527 1.48159ZM2.96318 5.18557V6.66716H4.44478V5.18557H2.96318ZM7.40796 5.18557H5.92637V6.66716H7.40796V5.18557ZM8.88955 5.18557H10.3711V6.66716H8.88955V5.18557ZM1.48159 13.3344H11.8527V3.15738H1.48159V13.3344Z" fill="#2F3A4F" fill-opacity="0.5"/>
</svg>
